<svg width="22" height="22" viewBox="0 0 22 22" fill="none" xmlns="http://www.w3.org/2000/svg">
<path d="M10.9902 21.0371C12.3704 21.0371 13.6693 20.7734 14.8867 20.2461C16.1042 19.7253 17.1784 18.9993 18.1094 18.0684C19.0404 17.1374 19.7695 16.0632 20.2969 14.8457C20.8242 13.6283 21.0879 12.3294 21.0879 10.9492C21.0879 9.56901 20.8242 8.27018 20.2969 7.05273C19.7695 5.83529 19.0404 4.76432 18.1094 3.83984C17.1784 2.90885 16.1042 2.17969 14.8867 1.65234C13.6693 1.125 12.3672 0.861328 10.9805 0.861328C9.60026 0.861328 8.30143 1.125 7.08398 1.65234C5.87305 2.17969 4.80208 2.90885 3.87109 3.83984C2.94661 4.76432 2.2207 5.83529 1.69336 7.05273C1.16602 8.27018 0.902344 9.56901 0.902344 10.9492C0.902344 12.3294 1.16602 13.6283 1.69336 14.8457C2.2207 16.0632 2.94661 17.1374 3.87109 18.0684C4.80208 18.9993 5.8763 19.7253 7.09375 20.2461C8.3112 20.7734 9.61003 21.0371 10.9902 21.0371ZM10.9902 19.0449C9.87044 19.0449 8.81901 18.8366 7.83594 18.4199C6.85938 18.0033 6 17.4238 5.25781 16.6816C4.52214 15.9395 3.94596 15.0801 3.5293 14.1035C3.11263 13.127 2.9043 12.0755 2.9043 10.9492C2.9043 9.82943 3.11263 8.78125 3.5293 7.80469C3.94596 6.82161 4.52214 5.95898 5.25781 5.2168C5.99349 4.47461 6.84961 3.89518 7.82617 3.47852C8.80924 3.06185 9.86068 2.85352 10.9805 2.85352C12.1068 2.85352 13.1582 3.06185 14.1348 3.47852C15.1178 3.89518 15.9805 4.47461 16.7227 5.2168C17.4648 5.95898 18.0443 6.82161 18.4609 7.80469C18.8776 8.78125 19.0859 9.82943 19.0859 10.9492C19.0859 12.0755 18.8776 13.127 18.4609 14.1035C18.0443 15.0801 17.4648 15.9395 16.7227 16.6816C15.9805 17.4238 15.1211 18.0033 14.1445 18.4199C13.168 18.8366 12.1165 19.0449 10.9902 19.0449ZM9.93555 15.5879C10.3001 15.5879 10.5866 15.4219 10.7949 15.0898L15.1602 8.26367C15.2253 8.16602 15.2806 8.06185 15.3262 7.95117C15.3783 7.83398 15.4043 7.72005 15.4043 7.60938C15.4043 7.36849 15.3132 7.17318 15.1309 7.02344C14.9486 6.8737 14.7435 6.79883 14.5156 6.79883C14.2096 6.79883 13.9557 6.96484 13.7539 7.29688L9.89648 13.4785L8.08008 11.1738C7.96289 11.0176 7.84245 10.9102 7.71875 10.8516C7.60156 10.7865 7.4681 10.7539 7.31836 10.7539C7.08398 10.7539 6.88216 10.8418 6.71289 11.0176C6.55013 11.1868 6.46875 11.3919 6.46875 11.6328C6.46875 11.8542 6.55339 12.0723 6.72266 12.2871L9.02734 15.0996C9.16406 15.2624 9.30404 15.3861 9.44727 15.4707C9.59049 15.5488 9.75326 15.5879 9.93555 15.5879Z" fill="#11C844"/>
</svg>
