<svg width="75" height="67" viewBox="0 0 75 67" fill="none" xmlns="http://www.w3.org/2000/svg">
<path d="M37.4727 36.6641C38.6393 36.6823 39.8242 36.5365 41.0273 36.2266C42.2487 35.9167 43.5885 35.4336 45.0469 34.7773L71.9805 22.4727C72.8737 22.0716 73.5391 21.5065 73.9766 20.7773C74.4323 20.0299 74.6602 19.2461 74.6602 18.4258C74.6602 17.6237 74.4323 16.8581 73.9766 16.1289C73.5391 15.3815 72.8737 14.8073 71.9805 14.4062L45.0469 2.10156C43.5885 1.44531 42.2487 0.96224 41.0273 0.652344C39.8242 0.342448 38.6393 0.196615 37.4727 0.214844C36.306 0.196615 35.112 0.342448 33.8906 0.652344C32.6875 0.96224 31.3568 1.44531 29.8984 2.10156L2.99219 14.4062C2.09896 14.8073 1.42448 15.3815 0.96875 16.1289C0.53125 16.8581 0.3125 17.6237 0.3125 18.4258C0.3125 19.2461 0.53125 20.0299 0.96875 20.7773C1.42448 21.5065 2.09896 22.0716 2.99219 22.4727L29.8984 34.7773C31.3568 35.4336 32.6875 35.9167 33.8906 36.2266C35.112 36.5365 36.306 36.6823 37.4727 36.6641ZM37.4727 32.3438C36.5612 32.3438 35.6406 32.2253 34.7109 31.9883C33.7812 31.7331 32.7331 31.3411 31.5664 30.8125L6.38281 19.3555C5.90885 19.1367 5.67188 18.8268 5.67188 18.4258C5.67188 18.043 5.90885 17.7422 6.38281 17.5234L31.5664 6.06641C32.7331 5.53776 33.7812 5.15495 34.7109 4.91797C35.6406 4.66276 36.5612 4.53516 37.4727 4.53516C38.3841 4.53516 39.3047 4.66276 40.2344 4.91797C41.1823 5.15495 42.2396 5.53776 43.4062 6.06641L68.5898 17.5234C69.0638 17.7422 69.3008 18.043 69.3008 18.4258C69.3008 18.8268 69.0638 19.1367 68.5898 19.3555L43.4062 30.8125C42.2396 31.3411 41.1823 31.7331 40.2344 31.9883C39.3047 32.2253 38.3841 32.3438 37.4727 32.3438ZM10.9766 38.9883C10.9766 41.0299 11.5964 42.9622 12.8359 44.7852C14.0755 46.6081 15.8529 48.2122 18.168 49.5977C20.5013 51.0013 23.2904 52.0951 26.5352 52.8789C29.7982 53.681 33.444 54.082 37.4727 54.082C41.5013 54.082 45.1471 53.681 48.4102 52.8789C51.6732 52.0951 54.4622 51.0013 56.7773 49.5977C59.0924 48.2122 60.8698 46.6081 62.1094 44.7852C63.3672 42.9622 63.9961 41.0299 63.9961 38.9883V24.5508H59.5938V38.9883C59.5938 40.4102 59.0742 41.7773 58.0352 43.0898C56.9961 44.4023 55.5104 45.5781 53.5781 46.6172C51.6458 47.638 49.3216 48.4492 46.6055 49.0508C43.8893 49.6523 40.8451 49.9531 37.4727 49.9531C34.1185 49.9531 31.0742 49.6523 28.3398 49.0508C25.6237 48.4492 23.2995 47.638 21.3672 46.6172C19.4349 45.5781 17.9492 44.4023 16.9102 43.0898C15.8893 41.7773 15.3789 40.4102 15.3789 38.9883V24.5508H10.9766V38.9883ZM37.582 21.543C38.5664 21.543 39.4961 21.4062 40.3711 21.1328C41.2643 20.8594 41.9844 20.4948 42.5312 20.0391C43.0964 19.5651 43.3789 19.0273 43.3789 18.4258C43.3789 17.8424 43.0964 17.3229 42.5312 16.8672C41.9844 16.4115 41.2643 16.056 40.3711 15.8008C39.4961 15.5273 38.5664 15.3906 37.582 15.3906C36.6159 15.3906 35.6862 15.5273 34.793 15.8008C33.8997 16.056 33.1706 16.4115 32.6055 16.8672C32.0404 17.3229 31.7578 17.8424 31.7578 18.4258C31.7578 19.0273 32.0404 19.5651 32.6055 20.0391C33.1706 20.4948 33.8997 20.8594 34.793 21.1328C35.6862 21.4062 36.6159 21.543 37.582 21.543ZM20.957 28.7617L37.1719 20.1758L35.668 17.3594L17.4023 26.875L20.957 28.7617ZM17.4023 55.5859H20.957V28.7617L17.4023 27.0117V55.5859ZM15.2422 56.1328V63.3242C15.2422 64.3997 15.5612 65.2565 16.1992 65.8945C16.8555 66.5508 17.7214 66.8789 18.7969 66.8789H19.5352C20.6107 66.8789 21.4674 66.5508 22.1055 65.8945C22.7617 65.2565 23.0898 64.3997 23.0898 63.3242V56.1328C23.0898 55.0573 22.7617 54.1914 22.1055 53.5352C21.4674 52.8971 20.6107 52.5781 19.5352 52.5781H18.7969C17.7214 52.5781 16.8555 52.8971 16.1992 53.5352C15.5612 54.1914 15.2422 55.0573 15.2422 56.1328Z" fill="#5C90F1"/>
</svg>
