<svg width="33" height="57" viewBox="0 0 33 57" fill="none" xmlns="http://www.w3.org/2000/svg">
<path d="M4.57031 6.60938C4.57031 7.90625 4.92969 8.92188 5.64844 9.65625C6.36719 10.3906 7.35938 10.7578 8.625 10.7578H24.3281C25.6094 10.7578 26.6094 10.3906 27.3281 9.65625C28.0469 8.92188 28.4062 7.90625 28.4062 6.60938V4.14844C28.4062 2.85156 28.0469 1.83594 27.3281 1.10156C26.6094 0.367188 25.6094 0 24.3281 0H8.625C7.35938 0 6.36719 0.367188 5.64844 1.10156C4.92969 1.83594 4.57031 2.85156 4.57031 4.14844V6.60938ZM7.875 6.5625V4.19531C7.875 3.91406 7.95312 3.69531 8.10938 3.53906C8.28125 3.36719 8.50781 3.28125 8.78906 3.28125H24.1641C24.4609 3.28125 24.6875 3.36719 24.8438 3.53906C25.0156 3.69531 25.1016 3.91406 25.1016 4.19531V6.5625C25.1016 6.82812 25.0156 7.04688 24.8438 7.21875C24.6875 7.39062 24.4609 7.47656 24.1641 7.47656H8.78906C8.50781 7.47656 8.28125 7.39062 8.10938 7.21875C7.95312 7.04688 7.875 6.82812 7.875 6.5625ZM11.2969 15.0234V9.46875H7.99219V15.0234H11.2969ZM24.9844 15.0234V9.46875H21.6797V15.0234H24.9844ZM0.421875 48.4219C0.421875 49.9844 0.734375 51.3359 1.35938 52.4766C1.98438 53.6328 2.85938 54.5234 3.98438 55.1484C5.125 55.7891 6.46094 56.1094 7.99219 56.1094H24.9844C26.5 56.1094 27.8281 55.7891 28.9688 55.1484C30.1094 54.5234 30.9922 53.6328 31.6172 52.4766C32.2422 51.3359 32.5547 49.9844 32.5547 48.4219V21.8438C32.5547 20.2812 32.2422 18.9297 31.6172 17.7891C30.9922 16.6328 30.1094 15.7422 28.9688 15.1172C27.8281 14.4766 26.5 14.1562 24.9844 14.1562H7.99219C6.46094 14.1562 5.125 14.4766 3.98438 15.1172C2.85938 15.7422 1.98438 16.6328 1.35938 17.7891C0.734375 18.9297 0.421875 20.2812 0.421875 21.8438V48.4219ZM4.00781 48.375V21.8906C4.00781 20.6406 4.38281 19.6406 5.13281 18.8906C5.89844 18.1406 6.91406 17.7656 8.17969 17.7656H24.7969C26.0625 17.7656 27.0703 18.1406 27.8203 18.8906C28.5859 19.6406 28.9688 20.6406 28.9688 21.8906V48.375C28.9688 49.6406 28.5859 50.6484 27.8203 51.3984C27.0703 52.1484 26.0625 52.5234 24.7969 52.5234H8.17969C6.91406 52.5234 5.89844 52.1484 5.13281 51.3984C4.38281 50.6484 4.00781 49.6406 4.00781 48.375ZM7.73438 36.7969C7.73438 37.2969 7.88281 37.6953 8.17969 37.9922C8.47656 38.2734 8.86719 38.4141 9.35156 38.4141H13.1953V42.2344C13.1953 42.7188 13.3359 43.1172 13.6172 43.4297C13.9141 43.7266 14.3125 43.875 14.8125 43.875H18.1406C18.6406 43.875 19.0312 43.7266 19.3125 43.4297C19.6094 43.1172 19.7578 42.7188 19.7578 42.2344V38.4141H23.6016C24.0703 38.4141 24.4609 38.2734 24.7734 37.9922C25.0859 37.6953 25.2422 37.2969 25.2422 36.7969V33.4688C25.2422 32.9688 25.0859 32.5781 24.7734 32.2969C24.4609 32 24.0703 31.8516 23.6016 31.8516H19.7578V28.0312C19.7578 27.5469 19.6094 27.1562 19.3125 26.8594C19.0312 26.5625 18.6406 26.4141 18.1406 26.4141H14.8125C14.3125 26.4141 13.9141 26.5625 13.6172 26.8594C13.3359 27.1562 13.1953 27.5469 13.1953 28.0312V31.8516H9.35156C8.86719 31.8516 8.47656 32 8.17969 32.2969C7.88281 32.5781 7.73438 32.9688 7.73438 33.4688V36.7969Z" fill="#5C90F1"/>
</svg>
