<svg width="80" height="81" viewBox="0 0 80 81" fill="none" xmlns="http://www.w3.org/2000/svg">
<path d="M40 80.6406C45.4427 80.6406 50.5599 79.599 55.3516 77.5156C60.1693 75.4323 64.4141 72.5547 68.0859 68.8828C71.7578 65.2109 74.6354 60.9792 76.7188 56.1875C78.8021 51.3698 79.8438 46.2396 79.8438 40.7969C79.8438 35.3542 78.8021 30.237 76.7188 25.4453C74.6354 20.6276 71.7578 16.3828 68.0859 12.7109C64.4141 9.03906 60.1693 6.16146 55.3516 4.07812C50.5339 1.99479 45.4036 0.953125 39.9609 0.953125C34.5182 0.953125 29.388 1.99479 24.5703 4.07812C19.7786 6.16146 15.5469 9.03906 11.875 12.7109C8.22917 16.3828 5.36458 20.6276 3.28125 25.4453C1.19792 30.237 0.15625 35.3542 0.15625 40.7969C0.15625 46.2396 1.19792 51.3698 3.28125 56.1875C5.36458 60.9792 8.24219 65.2109 11.9141 68.8828C15.5859 72.5547 19.8177 75.4323 24.6094 77.5156C29.4271 79.599 34.5573 80.6406 40 80.6406ZM40 74C35.3906 74 31.0807 73.1406 27.0703 71.4219C23.0599 69.7031 19.5312 67.3333 16.4844 64.3125C13.4635 61.2656 11.0938 57.737 9.375 53.7266C7.68229 49.7161 6.83594 45.4062 6.83594 40.7969C6.83594 36.1875 7.68229 31.8776 9.375 27.8672C11.0938 23.8568 13.4635 20.3281 16.4844 17.2812C19.5052 14.2344 23.0208 11.8646 27.0312 10.1719C31.0417 8.45312 35.3516 7.59375 39.9609 7.59375C44.5703 7.59375 48.8802 8.45312 52.8906 10.1719C56.9271 11.8646 60.4557 14.2344 63.4766 17.2812C66.5234 20.3281 68.9062 23.8568 70.625 27.8672C72.3438 31.8776 73.2031 36.1875 73.2031 40.7969C73.2031 45.4062 72.3438 49.7161 70.625 53.7266C68.9323 57.737 66.5625 61.2656 63.5156 64.3125C60.4688 67.3333 56.9401 69.7031 52.9297 71.4219C48.9193 73.1406 44.6094 74 40 74ZM31.7188 66.3828C32.6562 66.3828 33.3854 66.1354 33.9062 65.6406C34.4531 65.1458 34.7135 64.4557 34.6875 63.5703L34.2969 38.7656C34.2969 37.9844 34.6224 37.4375 35.2734 37.125C36.7318 36.5 37.7865 35.7448 38.4375 34.8594C39.1146 33.974 39.401 32.5677 39.2969 30.6406L38.6328 17.125C38.5807 16.0833 38.099 15.5625 37.1875 15.5625C36.25 15.5625 35.7812 16.0833 35.7812 17.125L35.9375 30.3281C35.9375 31.1875 35.5208 31.6172 34.6875 31.6172C33.8281 31.6172 33.3984 31.2135 33.3984 30.4062L33.2031 16.7734C33.2031 15.7839 32.7083 15.2891 31.7188 15.2891C30.7552 15.2891 30.2734 15.7839 30.2734 16.7734L30.0391 30.4062C30.0391 31.2135 29.6094 31.6172 28.75 31.6172C27.9427 31.6172 27.5391 31.1875 27.5391 30.3281L27.6953 17.125C27.6953 16.0833 27.2266 15.5625 26.2891 15.5625C25.3516 15.5625 24.8568 16.0833 24.8047 17.125L24.1797 30.6406C24.1016 32.5677 24.388 33.974 25.0391 34.8594C25.6901 35.7448 26.7448 36.5 28.2031 37.125C28.5417 37.2812 28.7891 37.5026 28.9453 37.7891C29.1016 38.0495 29.1797 38.375 29.1797 38.7656L28.7891 63.5703C28.763 64.4557 29.0104 65.1458 29.5312 65.6406C30.0781 66.1354 30.8073 66.3828 31.7188 66.3828ZM47.0312 47.5938L46.5234 63.4531C46.4974 64.3906 46.7578 65.1198 47.3047 65.6406C47.8516 66.1354 48.5807 66.3828 49.4922 66.3828C50.4297 66.3828 51.1589 66.1484 51.6797 65.6797C52.2266 65.2109 52.5 64.5469 52.5 63.6875V16.9297C52.5 16.3568 52.3307 15.9401 51.9922 15.6797C51.6797 15.4193 51.3281 15.2891 50.9375 15.2891C50.2083 15.2891 49.5182 15.7708 48.8672 16.7344C47.6693 18.401 46.6276 20.4844 45.7422 22.9844C44.8568 25.4583 44.1667 28.1536 43.6719 31.0703C43.1771 33.987 42.9297 36.9167 42.9297 39.8594V41.3438C42.9297 42.099 43.0729 42.763 43.3594 43.3359C43.6719 43.8828 44.1016 44.3516 44.6484 44.7422L45.8984 45.6406C46.6797 46.1875 47.0573 46.8385 47.0312 47.5938Z" fill="#5C90F1"/>
</svg>
