<svg width="12" height="11" viewBox="0 0 12 11" fill="none" xmlns="http://www.w3.org/2000/svg">
<path d="M6.49579 6C7.32421 6 7.99579 6.67157 7.99579 7.5L7.995 8.24837C8.09788 10.0849 6.68334 11.0008 4.06019 11.0008C1.44552 11.0008 0 10.0969 0 8.27457V7.5C0 6.67157 0.671573 6 1.5 6H6.49579ZM10.4964 6C11.3248 6 11.9964 6.67157 11.9964 7.5L11.9956 8.02657C12.0861 9.67404 10.8362 10.5 8.55159 10.5C8.24147 10.5 7.94993 10.4849 7.67766 10.4547C8.21436 9.95904 8.50147 9.28646 8.50049 8.43657L8.49422 8.2204L8.49579 7.5C8.49579 6.90243 8.23371 6.36607 7.81823 5.99959L10.4964 6ZM4 0C5.38094 0 6.50041 1.11947 6.50041 2.5004C6.50041 3.88134 5.38094 5.00081 4 5.00081C2.61906 5.00081 1.49959 3.88134 1.49959 2.5004C1.49959 1.11947 2.61906 0 4 0ZM9 1C10.1046 1 11 1.89543 11 3C11 4.10457 10.1046 5 9 5C7.89543 5 7 4.10457 7 3C7 1.89543 7.89543 1 9 1Z" fill="#5C90F1"/>
</svg>
